<mxfile host="65bd71144e">
    <diagram id="4hLalxUBuwSuPkIFUCFF" name="Page-1">
        <mxGraphModel dx="1323" dy="663" grid="1" gridSize="10" guides="1" tooltips="1" connect="1" arrows="1" fold="1" page="1" pageScale="1" pageWidth="827" pageHeight="1169" math="0" shadow="0">
            <root>
                <mxCell id="0"/>
                <mxCell id="1" parent="0"/>
                <mxCell id="27" value="" style="rounded=1;whiteSpace=wrap;html=1;shadow=1;arcSize=3;fillColor=#647687;strokeColor=#314354;fontColor=#FF1453;" vertex="1" parent="1">
                    <mxGeometry x="10" y="20" width="770" height="410" as="geometry"/>
                </mxCell>
                <mxCell id="2" value="Client" style="swimlane;startSize=20;horizontal=0;childLayout=treeLayout;horizontalTree=1;resizable=0;containerType=tree;flipH=0;flipV=0;direction=east;fillColor=#eeeeee;strokeColor=#36393d;fontColor=#1A1A1A;" vertex="1" parent="1">
                    <mxGeometry x="20" y="40" width="310" height="80" as="geometry"/>
                </mxCell>
                <mxCell id="3" value="Send Message" style="whiteSpace=wrap;html=1;fillColor=#6d8764;strokeColor=#3A5431;fontColor=#1A1A1A;" vertex="1" parent="2">
                    <mxGeometry x="40" y="20" width="100" height="40" as="geometry"/>
                </mxCell>
                <mxCell id="4" value="Http Request" style="whiteSpace=wrap;html=1;fontColor=#000000;fillColor=#f0a30a;strokeColor=#BD7000;" vertex="1" parent="2">
                    <mxGeometry x="190" y="20" width="100" height="40" as="geometry"/>
                </mxCell>
                <mxCell id="5" value="" style="edgeStyle=elbowEdgeStyle;elbow=horizontal;html=1;rounded=0;fontColor=#FF1453;strokeWidth=3;" edge="1" parent="2" source="3" target="4">
                    <mxGeometry relative="1" as="geometry"/>
                </mxCell>
                <mxCell id="14" value="Host" style="swimlane;startSize=20;horizontal=0;childLayout=treeLayout;horizontalTree=1;resizable=0;containerType=tree;fillColor=#eeeeee;strokeColor=#36393d;fontColor=#1A1A1A;" vertex="1" parent="1">
                    <mxGeometry x="20" y="220" width="740" height="180" as="geometry"/>
                </mxCell>
                <mxCell id="15" value="Http Handler" style="whiteSpace=wrap;html=1;fontColor=#000000;fillColor=#f0a30a;strokeColor=#BD7000;" vertex="1" parent="14">
                    <mxGeometry x="40" y="60" width="100" height="40" as="geometry"/>
                </mxCell>
                <mxCell id="36" style="edgeStyle=orthogonalEdgeStyle;curved=1;rounded=0;orthogonalLoop=1;jettySize=auto;html=1;fontColor=#FFFFFF;strokeWidth=3;" edge="1" parent="14" source="16" target="21">
                    <mxGeometry relative="1" as="geometry"/>
                </mxCell>
                <mxCell id="16" value="Django Server" style="whiteSpace=wrap;html=1;fillColor=#76608a;strokeColor=#432D57;fontColor=#1A1A1A;" vertex="1" parent="14">
                    <mxGeometry x="190" y="100" width="100" height="40" as="geometry"/>
                </mxCell>
                <mxCell id="17" value="" style="edgeStyle=elbowEdgeStyle;elbow=horizontal;html=1;rounded=0;fontColor=#FF1453;strokeWidth=3;" edge="1" parent="14" source="15" target="16">
                    <mxGeometry relative="1" as="geometry"/>
                </mxCell>
                <mxCell id="37" style="edgeStyle=orthogonalEdgeStyle;curved=1;rounded=0;orthogonalLoop=1;jettySize=auto;html=1;entryX=0;entryY=0.5;entryDx=0;entryDy=0;entryPerimeter=0;fontColor=#FFFFFF;strokeWidth=3;" edge="1" parent="14" source="18" target="29">
                    <mxGeometry relative="1" as="geometry"/>
                </mxCell>
                <mxCell id="18" value="WeChat Controller" style="whiteSpace=wrap;html=1;fillColor=#6d8764;strokeColor=#3A5431;fontColor=#1A1A1A;" vertex="1" parent="14">
                    <mxGeometry x="190" y="20" width="100" height="40" as="geometry"/>
                </mxCell>
                <mxCell id="19" value="" style="edgeStyle=elbowEdgeStyle;elbow=horizontal;html=1;rounded=0;fontColor=#FF1453;strokeWidth=3;" edge="1" parent="14" source="15" target="18">
                    <mxGeometry relative="1" as="geometry"/>
                </mxCell>
                <mxCell id="21" value="&lt;div style=&quot;text-align: left&quot;&gt;&lt;span&gt;# Step 1&lt;/span&gt;&lt;/div&gt;&lt;div style=&quot;text-align: left&quot;&gt;&lt;span&gt;# Start the Django Server&lt;/span&gt;&lt;br&gt;&lt;/div&gt;python manage.py runserver {{hostIP}}:{{hostPort}}" style="text;html=1;align=center;verticalAlign=middle;resizable=0;points=[];autosize=1;strokeColor=#B20000;fontColor=#ffffff;fillColor=#e51400;" vertex="1" parent="14">
                    <mxGeometry x="340" y="95" width="290" height="50" as="geometry"/>
                </mxCell>
                <mxCell id="26" value="Automatically Controlled by Django Server" style="text;html=1;align=center;verticalAlign=middle;resizable=0;points=[];autosize=1;strokeColor=none;fontColor=#FFFFFF;" vertex="1" parent="14">
                    <mxGeometry x="340" y="55" width="240" height="20" as="geometry"/>
                </mxCell>
                <mxCell id="29" value="&lt;div style=&quot;text-align: left&quot;&gt;&lt;span&gt;# Step 2&lt;/span&gt;&lt;/div&gt;Make sure the WeChat app is opend at the front of the host machine" style="text;html=1;align=center;verticalAlign=middle;resizable=0;points=[];autosize=1;strokeColor=#B20000;fontColor=#ffffff;fillColor=#e51400;" vertex="1" parent="14">
                    <mxGeometry x="340" y="25" width="380" height="30" as="geometry"/>
                </mxCell>
                <mxCell id="38" value="hostIP, hostPort" style="text;html=1;align=center;verticalAlign=middle;resizable=0;points=[];autosize=1;strokeColor=#B20000;fontColor=#ffffff;fillColor=#e51400;" vertex="1" parent="14">
                    <mxGeometry x="220" y="140" width="100" height="20" as="geometry"/>
                </mxCell>
                <mxCell id="20" style="edgeStyle=orthogonalEdgeStyle;rounded=0;orthogonalLoop=1;jettySize=auto;html=1;entryX=0.5;entryY=0;entryDx=0;entryDy=0;curved=1;exitX=0.5;exitY=1;exitDx=0;exitDy=0;fontColor=#FF1453;strokeWidth=3;" edge="1" parent="1" source="4" target="15">
                    <mxGeometry relative="1" as="geometry"/>
                </mxCell>
                <mxCell id="28" value="# Step 3&lt;br&gt;# Example of sending {{Message}}&lt;br&gt;http://{{hostIP}}:{{hostPort}}/submit/{{Message}}" style="text;html=1;align=left;verticalAlign=middle;resizable=0;points=[];autosize=1;strokeColor=#B20000;fontColor=#ffffff;fillColor=#e51400;spacingLeft=5;" vertex="1" parent="1">
                    <mxGeometry x="260" y="140" width="270" height="50" as="geometry"/>
                </mxCell>
                <mxCell id="40" value="How to Use" style="text;html=1;align=center;verticalAlign=middle;resizable=0;points=[];autosize=1;strokeColor=none;fontColor=#FFFFFF;fontSize=34;fontStyle=3" vertex="1" parent="1">
                    <mxGeometry x="550" y="40" width="200" height="50" as="geometry"/>
                </mxCell>
            </root>
        </mxGraphModel>
    </diagram>
</mxfile>